<svg width="100" height="100" viewBox="0 0 100 100" fill="none" xmlns="http://www.w3.org/2000/svg">
<path d="M43.2841 93.1958H85.0748C88.372 93.1958 91.0449 91.1651 91.0449 88.6602V56.9106C91.0449 54.4057 88.372 52.375 85.0748 52.375H43.2841C39.9869 52.375 37.314 54.4057 37.314 56.9106V88.6602C37.314 91.1651 39.9869 93.1958 43.2841 93.1958ZM43.2841 93.1958L76.1196 68.2498L91.0449 79.5889M58.2093 64.848C58.2093 66.7268 56.2046 68.2498 53.7318 68.2498C51.2589 68.2498 49.2542 66.7268 49.2542 64.848C49.2542 62.9693 51.2589 61.4463 53.7318 61.4463C56.2046 61.4463 58.2093 62.9693 58.2093 64.848Z" stroke="#1E1E1E" stroke-width="4" stroke-linecap="round" stroke-linejoin="round"/>
<path d="M62.686 34.0166C62.686 35.2195 62.057 36.3732 60.9374 37.2238C59.8178 38.0744 58.2993 38.5523 56.7159 38.5523H20.8953L8.95508 47.6235V11.3384C8.95508 10.1355 9.58407 8.98179 10.7037 8.13119C11.8233 7.2806 13.3418 6.80273 14.9252 6.80273H56.7159C58.2993 6.80273 59.8178 7.2806 60.9374 8.13119C62.057 8.98179 62.686 10.1355 62.686 11.3384V34.0166Z" stroke="#1E1E1E" stroke-width="4" stroke-linecap="round" stroke-linejoin="round"/>
</svg>
