<svg width="80" height="80" viewBox="0 0 80 80" fill="none" xmlns="http://www.w3.org/2000/svg">
<path d="M70.7002 52.966C68.5796 57.981 65.2628 62.4001 61.0398 65.837C56.8168 69.274 51.8161 71.6241 46.475 72.682C41.1339 73.7398 35.6149 73.4732 30.4007 71.9053C25.1864 70.3375 20.4356 67.5163 16.5636 63.6882C12.6916 59.8601 9.81625 55.1419 8.18899 49.9458C6.56172 44.7498 6.23208 39.2343 7.22886 33.8815C8.22565 28.5286 10.5185 23.5014 13.907 19.2394C17.2955 14.9775 21.6765 11.6104 26.6669 9.43268M73.3335 39.9994C73.3335 35.622 72.4714 31.2874 70.7962 27.2432C69.121 23.199 66.6657 19.5244 63.5704 16.4291C60.4751 13.3338 56.8005 10.8785 52.7563 9.20336C48.7121 7.52821 44.3776 6.66602 40.0002 6.66602V39.9994H73.3335Z" stroke="#1E1E1E" stroke-width="4" stroke-linecap="round" stroke-linejoin="round"/>
</svg>
