<svg width="15" height="15" viewBox="0 0 15 15" fill="none" xmlns="http://www.w3.org/2000/svg">
<path d="M5.95725 0.00990973C6.31818 -0.0326129 6.68187 0.0627025 6.97551 0.276778C7.26915 0.490854 7.47108 0.807895 7.54089 1.16445L7.55986 1.29113L7.56365 1.37002V6.67997C7.56368 6.86577 7.63191 7.04509 7.75541 7.18394C7.87892 7.32278 8.0491 7.41149 8.23368 7.43322L8.32246 7.43853H13.4824C13.8849 7.43853 14.2709 7.59837 14.5555 7.88289C14.8401 8.16741 15 8.5533 15 8.95566C15 9.01337 14.9934 9.07089 14.9803 9.1271C14.6766 10.4369 14.0302 11.6424 13.1071 12.6203C12.1841 13.5982 11.0177 14.3133 9.72728 14.6923C8.43689 15.0714 7.06891 15.1007 5.76343 14.7774C4.45796 14.4541 3.26189 13.7898 2.29773 12.8524C1.33356 11.915 0.635945 10.7383 0.276311 9.44274C-0.0833226 8.14719 -0.0920469 6.77937 0.251031 5.47935C0.59411 4.17932 1.27666 2.99381 2.22879 2.04422C3.18092 1.09462 4.36841 0.415068 5.66966 0.0751463L5.87454 0.0243225L5.95725 0.00990973Z" fill="#2D2D2D"/>
<path d="M9.08154 0.990554V5.16266C9.08154 5.36384 9.16149 5.55679 9.30379 5.69905C9.4461 5.8413 9.6391 5.92122 9.84035 5.92122H14.0138C14.1351 5.92119 14.2546 5.89209 14.3623 5.83637C14.4701 5.78065 14.5628 5.69993 14.6329 5.60097C14.703 5.50201 14.7483 5.3877 14.7651 5.26762C14.7819 5.14754 14.7696 5.02519 14.7294 4.91082C14.3525 3.84073 13.7403 2.86878 12.938 2.06653C12.1356 1.26428 11.1634 0.65215 10.093 0.275227C9.97859 0.234822 9.85611 0.222452 9.73589 0.239156C9.61567 0.25586 9.50121 0.301151 9.40212 0.371226C9.30303 0.441302 9.22221 0.534117 9.16642 0.641882C9.11064 0.749647 9.08153 0.869216 9.08154 0.990554Z" fill="#2D2D2D"/>
</svg>
